<svg width="158" height="65" viewBox="0 0 158 65" fill="none" xmlns="http://www.w3.org/2000/svg">
<path d="M23.7801 50.3833C23.7799 49.0233 24.093 47.8033 24.7195 46.7233C25.3593 45.6433 26.2192 44.8033 27.2991 44.2033C28.3923 43.5899 29.5856 43.2833 30.879 43.2833C32.359 43.2833 33.6724 43.6499 34.8191 44.3833C35.9793 45.1033 36.8194 46.1299 37.3396 47.4633H34.5996C34.2395 46.7299 33.7394 46.1833 33.0994 45.8233C32.4593 45.4633 31.7193 45.2833 30.8793 45.2833C29.9593 45.2833 29.1393 45.4899 28.4194 45.9033C27.6994 46.3166 27.1329 46.9099 26.7197 47.6833C26.3198 48.4566 26.1199 49.3566 26.1201 50.3833C26.1202 51.4099 26.3204 52.3099 26.7205 53.0833C27.134 53.8566 27.7007 54.4566 28.4208 54.8833C29.1409 55.2966 29.9609 55.5033 30.8809 55.5033C31.7209 55.5033 32.4609 55.3233 33.1008 54.9633C33.7407 54.6033 34.2407 54.0566 34.6005 53.3233H37.3405C36.8208 54.6566 35.9809 55.6833 34.821 56.4033C33.6745 57.1233 32.3612 57.4833 30.8812 57.4833C29.5745 57.4833 28.3812 57.1833 27.3011 56.5833C26.221 55.9699 25.3608 55.1233 24.7207 54.0433C24.0938 52.9633 23.7803 51.7433 23.7801 50.3833ZM44.79 57.5433C43.75 57.5433 42.8099 57.3099 41.9699 56.8433C41.1298 56.3633 40.4697 55.6966 39.9895 54.8433C39.5094 53.9766 39.2692 52.9766 39.2691 51.8433C39.2689 50.7233 39.5154 49.7299 40.0086 48.8633C40.5018 47.9966 41.175 47.3299 42.0283 46.8633C42.8815 46.3966 43.8348 46.1633 44.8882 46.1633C45.9415 46.1633 46.8949 46.3966 47.7483 46.8633C48.6017 47.3299 49.2751 47.9966 49.7686 48.8633C50.2621 49.7299 50.5089 50.7233 50.5091 51.8433C50.5092 52.9633 50.2561 53.9566 49.7495 54.8233C49.243 55.6899 48.5498 56.3633 47.6699 56.8433C46.8033 57.3099 45.8433 57.5433 44.79 57.5433ZM44.7897 55.5633C45.3763 55.5633 45.923 55.4233 46.4296 55.1433C46.9495 54.8633 47.3695 54.4433 47.6894 53.8833C48.0093 53.3233 48.1692 52.6433 48.1691 51.8433C48.1689 51.0433 48.0155 50.3699 47.7087 49.8233C47.402 49.2633 46.9953 48.8433 46.4886 48.5633C45.9818 48.2833 45.4352 48.1433 44.8485 48.1433C44.2618 48.1433 43.7152 48.2833 43.2086 48.5633C42.7153 48.8433 42.322 49.2633 42.0287 49.8233C41.7355 50.3699 41.5889 51.0433 41.5891 51.8433C41.5893 53.0299 41.8894 53.9499 42.4895 54.6033C43.1029 55.2433 43.8697 55.5633 44.7897 55.5633ZM57.5439 57.5433C56.5039 57.5433 55.5638 57.3099 54.7238 56.8433C53.8837 56.3633 53.2236 55.6966 52.7434 54.8433C52.2633 53.9766 52.0232 52.9766 52.023 51.8433C52.0228 50.7233 52.2693 49.7299 52.7625 48.8633C53.2557 47.9966 53.9289 47.3299 54.7822 46.8633C55.6355 46.3966 56.5887 46.1633 57.6421 46.1633C58.6954 46.1633 59.6488 46.3966 60.5022 46.8633C61.3556 47.3299 62.029 47.9966 62.5225 48.8633C63.016 49.7299 63.2628 50.7233 63.263 51.8433C63.2632 52.9633 63.01 53.9566 62.5034 54.8233C61.9969 55.6899 61.3037 56.3633 60.4238 56.8433C59.5572 57.3099 58.5972 57.5433 57.5439 57.5433ZM57.5436 55.5633C58.1302 55.5633 58.6769 55.4233 59.1835 55.1433C59.7035 54.8633 60.1234 54.4433 60.4433 53.8833C60.7632 53.3233 60.9231 52.6433 60.923 51.8433C60.9228 51.0433 60.7694 50.3699 60.4627 49.8233C60.1559 49.2633 59.7492 48.8433 59.2425 48.5633C58.7357 48.2833 58.1891 48.1433 57.6024 48.1433C57.0157 48.1433 56.4691 48.2833 55.9625 48.5633C55.4692 48.8433 55.0759 49.2633 54.7827 49.8233C54.4894 50.3699 54.3428 51.0433 54.343 51.8433C54.3432 53.0299 54.6433 53.9499 55.2434 54.6033C55.8568 55.2433 56.6236 55.5633 57.5436 55.5633ZM69.8769 51.8633L74.9578 57.3633H71.8778L67.797 52.6233L67.7978 57.3633H65.5178L65.5154 42.5633H67.7954L67.7968 51.1633L71.796 46.3433H74.956L69.8769 51.8633ZM77.75 44.8833C77.3367 44.8833 76.99 44.7433 76.7099 44.4633C76.4299 44.1833 76.2898 43.8366 76.2898 43.4233C76.2897 43.0099 76.4297 42.6633 76.7096 42.3833C76.9896 42.1033 77.3362 41.9633 77.7495 41.9633C78.1495 41.9633 78.4896 42.1033 78.7696 42.3833C79.0497 42.6633 79.1897 43.0099 79.1898 43.4233C79.1898 43.8366 79.0499 44.1833 78.7699 44.4633C78.49 44.7433 78.15 44.8833 77.75 44.8833ZM78.8702 46.3433L78.872 57.3633H76.592L76.5902 46.3433H78.8702ZM87.4236 46.1633C88.2903 46.1633 89.0637 46.3433 89.7437 46.7033C90.4371 47.0633 90.9772 47.5966 91.364 48.3033C91.7508 49.0099 91.9442 49.8633 91.9444 50.8633L91.9454 57.3633H89.6854L89.6844 51.2033C89.6843 50.2166 89.4375 49.4633 88.9441 48.9433C88.4507 48.4099 87.7773 48.1433 86.924 48.1433C86.0706 48.1433 85.3907 48.4099 84.8841 48.9433C84.3908 49.4633 84.1443 50.2166 84.1444 51.2033L84.1454 57.3633H81.8654L81.8637 46.3433H84.1437L84.1439 47.6033C84.5171 47.1499 84.9904 46.7966 85.5637 46.5433C86.1503 46.2899 86.7703 46.1633 87.4236 46.1633ZM99.2919 46.1633C100.145 46.1633 100.899 46.3366 101.552 46.6833C102.219 47.0166 102.739 47.4366 103.112 47.9433L103.112 46.3433H105.412L105.414 57.5433C105.414 58.5566 105.201 59.4566 104.774 60.2433C104.348 61.0433 103.728 61.6699 102.914 62.1233C102.115 62.5766 101.155 62.8033 100.035 62.8033C98.5412 62.8033 97.3012 62.4499 96.3144 61.7433C95.3276 61.0499 94.7675 60.1033 94.6339 58.9033H96.8939C97.0674 59.4766 97.4341 59.9366 97.9942 60.2833C98.5675 60.6433 99.2476 60.8233 100.034 60.8233C100.954 60.8233 101.694 60.5433 102.254 59.9833C102.827 59.4233 103.114 58.6099 103.114 57.5433L103.113 55.7033C102.727 56.2233 102.2 56.6633 101.534 57.0233C100.88 57.3699 100.134 57.5433 99.2937 57.5433C98.3337 57.5433 97.4537 57.3033 96.6536 56.8233C95.8669 56.3299 95.2401 55.6499 94.7733 54.7833C94.3198 53.9033 94.093 52.9099 94.0928 51.8033C94.0926 50.6966 94.3192 49.7166 94.7724 48.8633C95.2389 48.0099 95.8654 47.3499 96.652 46.8833C97.452 46.4033 98.3319 46.1633 99.2919 46.1633ZM103.113 51.8433C103.113 51.0833 102.953 50.4233 102.633 49.8633C102.326 49.3033 101.919 48.8766 101.412 48.5833C100.906 48.2899 100.359 48.1433 99.7722 48.1433C99.1856 48.1433 98.6389 48.2899 98.1323 48.5833C97.6257 48.8633 97.2124 49.2833 96.8925 49.8433C96.5859 50.3899 96.4327 51.0433 96.4328 51.8033C96.4329 52.5633 96.5864 53.2299 96.8931 53.8033C97.2132 54.3766 97.6266 54.8166 98.1333 55.1233C98.6534 55.4166 99.2001 55.5633 99.7734 55.5633C100.36 55.5633 100.907 55.4166 101.413 55.1233C101.92 54.8299 102.327 54.4033 102.633 53.8433C102.953 53.2699 103.113 52.6033 103.113 51.8433Z" fill="#F99106"/>
<path d="M118.184 57.5033C117.25 57.5033 116.41 57.3433 115.664 57.0233C114.917 56.6899 114.33 56.2233 113.903 55.6233C113.477 55.0233 113.263 54.3233 113.263 53.5233H115.703C115.757 54.1233 115.99 54.6166 116.403 55.0033C116.83 55.3899 117.423 55.5833 118.183 55.5833C118.97 55.5833 119.583 55.3966 120.023 55.0233C120.463 54.6366 120.683 54.1433 120.683 53.5433C120.683 53.0766 120.543 52.6966 120.263 52.4033C119.996 52.1099 119.656 51.8833 119.243 51.7233C118.843 51.5633 118.283 51.3899 117.563 51.2033C116.656 50.9633 115.916 50.7233 115.343 50.4833C114.783 50.2299 114.303 49.8433 113.902 49.3233C113.502 48.8033 113.302 48.1099 113.302 47.2433C113.302 46.4433 113.502 45.7433 113.902 45.1433C114.302 44.5433 114.862 44.0833 115.582 43.7633C116.302 43.4433 117.135 43.2833 118.081 43.2833C119.428 43.2833 120.528 43.6233 121.382 44.3033C122.248 44.9699 122.729 45.8899 122.822 47.0633H120.302C120.262 46.5566 120.022 46.1233 119.582 45.7633C119.142 45.4033 118.562 45.2233 117.842 45.2233C117.188 45.2233 116.655 45.3899 116.242 45.7233C115.829 46.0566 115.622 46.5366 115.622 47.1633C115.622 47.5899 115.749 47.9433 116.002 48.2233C116.269 48.4899 116.602 48.7033 117.002 48.8633C117.402 49.0233 117.949 49.1966 118.642 49.3833C119.562 49.6366 120.309 49.8899 120.883 50.1433C121.469 50.3966 121.963 50.7899 122.363 51.3233C122.776 51.8433 122.983 52.5433 122.983 53.4233C122.983 54.1299 122.79 54.7966 122.403 55.4233C122.03 56.0499 121.477 56.5566 120.744 56.9433C120.024 57.3166 119.17 57.5033 118.184 57.5033ZM128.333 48.2033L128.334 54.3033C128.334 54.7166 128.427 55.0166 128.614 55.2033C128.814 55.3766 129.147 55.4633 129.614 55.4633H131.014L131.014 57.3633H129.214C128.187 57.3633 127.401 57.1233 126.854 56.6433C126.307 56.1633 126.034 55.3833 126.034 54.3033L126.033 48.2033H124.733L124.732 46.3433H126.032L126.032 43.6033H128.332L128.332 46.3433H131.012L131.013 48.2033H128.333ZM143.094 46.3433L143.095 57.3633H140.815L140.815 56.0633C140.455 56.5166 139.982 56.8766 139.395 57.1433C138.822 57.3966 138.209 57.5233 137.555 57.5233C136.689 57.5233 135.909 57.3433 135.215 56.9833C134.535 56.6233 133.995 56.0899 133.595 55.3833C133.208 54.6766 133.015 53.8233 133.015 52.8233L133.014 46.3433H135.274L135.275 52.4833C135.275 53.4699 135.522 54.2299 136.015 54.7633C136.508 55.2833 137.182 55.5433 138.035 55.5433C138.888 55.5433 139.562 55.2833 140.055 54.7633C140.562 54.2299 140.815 53.4699 140.815 52.4833L140.814 46.3433H143.094ZM150.722 48.2033H148.682L148.684 57.3633H146.384L146.382 48.2033H145.082L145.082 46.3433H146.382L146.382 45.5633C146.382 44.2966 146.715 43.3766 147.381 42.8033C148.061 42.2166 149.121 41.9233 150.561 41.9233L150.562 43.8233C149.868 43.8233 149.382 43.9566 149.102 44.2233C148.822 44.4766 148.682 44.9233 148.682 45.5633L148.682 46.3433H150.722L150.722 48.2033ZM157.363 48.2033H155.323L155.324 57.3633H153.024L153.023 48.2033H151.723L151.723 46.3433H153.023L153.022 45.5633C153.022 44.2966 153.355 43.3766 154.022 42.8033C154.702 42.2166 155.762 41.9233 157.202 41.9233L157.202 43.8233C156.509 43.8233 156.022 43.9566 155.742 44.2233C155.462 44.4766 155.322 44.9233 155.322 45.5633L155.323 46.3433H157.363L157.363 48.2033Z" fill="black"/>
<path d="M10.9692 28.4604L116.652 28.0222L116.673 33.4993L55.934 33.6746C55.934 33.6683 16.4897 47.8023 10.9692 28.4604Z" fill="#603913"/>
<path d="M0.188465 2.79341C-0.959576 4.42779 3.10529 14.4416 13.2641 18.6184C20.159 21.4526 27.4945 23.3334 31.0387 24.1571C26.9805 20.1555 16.5013 10.2324 11.502 8.28675C11.502 8.28675 20.5528 10.4335 32.9076 22.9054C32.0733 18.7156 29.2967 8.02732 22.048 3.23443C12.9371 -2.8037 1.33651 1.15903 0.188465 2.79341Z" fill="#009444"/>
<path d="M62.6709 5.07135C63.5857 6.36471 60.4207 14.36 52.4079 17.7305C46.9659 20.0233 41.1833 21.5518 38.3789 22.2246C41.5706 19.0174 49.7971 11.0743 53.7434 9.50011C53.7434 9.50011 46.5986 11.2507 36.8965 21.2383C37.5375 17.9004 39.6742 9.38254 45.3834 5.52861C52.5681 0.681799 61.7562 3.77147 62.6709 5.07135Z" fill="#006838"/>
</svg>
