<svg width="24" height="24" viewBox="0 0 24 24" fill="none" xmlns="http://www.w3.org/2000/svg">
<g clip-path="url(#clip0_2_196)">
<path d="M23.9621 9.24043C23.8701 8.95707 23.6235 8.75171 23.3282 8.71234L15.9246 7.72553L12.6981 0.989172C12.5694 0.720438 12.298 0.549438 12 0.549438C11.702 0.549438 11.4306 0.720438 11.3018 0.989172L8.07543 7.72548L0.671849 8.71229C0.376489 8.75167 0.129974 8.95707 0.0379112 9.24038C-0.0541512 9.52369 0.0245519 9.83485 0.240364 10.0403L5.64997 15.1904L4.30068 22.5366C4.24686 22.8297 4.36597 23.1276 4.60705 23.3027C4.84804 23.4779 5.16815 23.4991 5.43032 23.3573L12.0001 19.8039L18.5698 23.3573C18.8318 23.499 19.1519 23.4779 19.3931 23.3027C19.6342 23.1276 19.7533 22.8297 19.6995 22.5366L18.3501 15.1904L23.7598 10.0403C23.9755 9.8349 24.0542 9.52384 23.9621 9.24043Z" fill="#F99106"/>
</g>
<defs>
<clipPath id="clip0_2_196">
<rect width="24" height="24" fill="white"/>
</clipPath>
</defs>
</svg>
